<?xml version="1.0" encoding="utf-8"?>
<!-- Generator: Adobe Illustrator 27.9.0, SVG Export Plug-In . SVG Version: 6.00 Build 0)  -->
<svg version="1.1" id="Layer_1" xmlns="http://www.w3.org/2000/svg" xmlns:xlink="http://www.w3.org/1999/xlink" x="0px" y="0px"
	 viewBox="0 0 216.5 154.5" style="enable-background:new 0 0 216.5 154.5;" xml:space="preserve">
<style type="text/css">
	.st0{fill:#0C5A46;}
</style>
<path class="st0" d="M111.8,46.1h-3.4v3.8h-0.9V53h0.9v9.3c0,3.1,1.6,4.9,4.5,4.9V64c-0.7,0-1-0.6-1-1.6V53h1.2v-3.1h-1.2V46.1z"/>
<path class="st0" d="M119.7,49.9h-4.8v17.2h3.4V53h1.4c0.7,0,1,0.6,1,1.6v0.2h3.4C124.2,51.7,122.6,49.9,119.7,49.9"/>
<path class="st0" d="M129.9,67.7c2.9,0,4.5-1.8,4.5-4.9v-2.5h-3.4V63c0,1-0.4,1.6-1,1.6c-0.7,0-1-0.6-1-1.6v-4.6h5.5v-4.2
	c0-3.1-1.6-4.9-4.5-4.9c-2.9,0-4.5,1.8-4.5,4.9v8.6C125.4,65.9,127,67.7,129.9,67.7 M128.9,54c0-1,0.4-1.6,1-1.6c0.7,0,1,0.6,1,1.6
	v1.3h-2.1V54z"/>
<path class="st0" d="M140.9,67.7c2.9,0,4.5-1.8,4.5-4.9v-2.5H142V63c0,1-0.4,1.6-1,1.6c-0.7,0-1-0.6-1-1.6v-4.6h5.5v-4.2
	c0-3.1-1.6-4.9-4.5-4.9c-2.9,0-4.5,1.8-4.5,4.9v8.6C136.5,65.9,138.1,67.7,140.9,67.7 M139.9,54c0-1,0.4-1.6,1-1.6
	c0.7,0,1,0.6,1,1.6v1.3h-2.1V54z"/>
<path class="st0" d="M108.5,76v3.4h-1v3.1h1v14.1h3.4V82.6h1v-3.1h-1v-3.6c0-1,0.4-1.6,1-1.6v-3.1C110.2,71.2,108.5,72.9,108.5,76"
	/>
<path class="st0" d="M119,97.2c2.9,0,4.5-1.8,4.5-4.9v-8.6c0-3.1-1.6-4.9-4.5-4.9c-2.9,0-4.5,1.8-4.5,4.9v8.6
	C114.6,95.5,116.2,97.2,119,97.2 M118,83.6c0-1,0.4-1.6,1-1.6c0.7,0,1,0.6,1,1.6v9c0,1-0.4,1.6-1,1.6c-0.7,0-1-0.6-1-1.6V83.6z"/>
<path class="st0" d="M130.1,96.7h4.8V79.5h-3.4v14.1h-1.4c-0.7,0-1-0.6-1-1.6V79.5h-3.4v12.4C125.6,94.9,127.2,96.7,130.1,96.7"/>
<path class="st0" d="M147,96.7V84.3c0-3.1-1.6-4.9-4.5-4.9h-4.8v17.2h3.4V82.6h1.4c0.7,0,1,0.6,1,1.6v12.5H147z"/>
<path class="st0" d="M154.9,79.5h-1.4c-2.9,0-4.5,1.8-4.5,4.9v7.5c0,3.1,1.6,4.9,4.5,4.9h4.8V71.2h-3.4V79.5z M154.9,93.6h-1.4
	c-0.7,0-1-0.6-1-1.6v-7.9c0-1,0.4-1.6,1-1.6h1.4V93.6z"/>
<path class="st0" d="M160.7,84.3v7.5c0,3.1,1.6,4.9,4.5,4.9h4.8V79.5h-4.8C162.4,79.5,160.7,81.2,160.7,84.3 M166.6,93.6h-1.4
	c-0.7,0-1-0.6-1-1.6v-7.9c0-1,0.4-1.6,1-1.6h1.4V93.6z"/>
<path class="st0" d="M176.1,75.7h-3.4v3.8h-0.9v3.1h0.9v9.3c0,3.1,1.6,4.9,4.5,4.9v-3.1c-0.7,0-1-0.6-1-1.6v-9.4h1.2v-3.1h-1.2V75.7
	z"/>
<path class="st0" d="M180.9,73c-1.2,0-2.1,0.9-2.1,2.1c0,1.1,0.9,2.1,2.1,2.1c1.2,0,2.1-0.9,2.1-2.1C183,73.9,182.1,73,180.9,73"/>
<rect x="179.2" y="79.5" class="st0" width="3.4" height="17.2"/>
<path class="st0" d="M189.5,78.9c-2.9,0-4.5,1.8-4.5,4.9v8.6c0,3.1,1.6,4.9,4.5,4.9c2.9,0,4.5-1.8,4.5-4.9v-8.6
	C194,80.7,192.4,78.9,189.5,78.9 M190.6,92.6c0,1-0.4,1.6-1,1.6c-0.7,0-1-0.6-1-1.6v-9c0-1,0.4-1.6,1-1.6c0.7,0,1,0.6,1,1.6V92.6z"
	/>
<path class="st0" d="M201.2,79.5h-4.8v17.2h3.4V82.6h1.4c0.7,0,1,0.6,1,1.6v12.5h3.4V84.3C205.7,81.2,204.1,79.5,201.2,79.5"/>
<path class="st0" d="M109.9,102.5c-1.2,0-2.1,0.9-2.1,2.1c0,1.1,0.9,2.1,2.1,2.1c1.2,0,2.1-0.9,2.1-2.1
	C112,103.5,111.1,102.5,109.9,102.5"/>
<rect x="108.2" y="109" class="st0" width="3.4" height="17.2"/>
<path class="st0" d="M119.2,109h-4.8v17.2h3.4v-14.1h1.4c0.7,0,1,0.6,1,1.6v12.5h3.4v-12.4C123.7,110.8,122.1,109,119.2,109"/>
<path class="st0" d="M131.6,109h-1.4c-2.9,0-4.5,1.8-4.5,4.9v7.5c0,3.1,1.6,4.9,4.5,4.9h4.8v-25.5h-3.4V109z M131.6,123.1h-1.4
	c-0.7,0-1-0.6-1-1.6v-7.9c0-1,0.4-1.6,1-1.6h1.4V123.1z"/>
<rect x="137.8" y="109" class="st0" width="3.4" height="17.2"/>
<path class="st0" d="M139.6,102.5c-1.2,0-2.1,0.9-2.1,2.1c0,1.1,0.9,2.1,2.1,2.1c1.2,0,2.1-0.9,2.1-2.1
	C141.6,103.5,140.7,102.5,139.6,102.5"/>
<path class="st0" d="M143.7,113.9v7.5c0,3.1,1.6,4.9,4.5,4.9h4.8V109h-4.8C145.3,109,143.7,110.8,143.7,113.9 M149.5,123.1h-1.4
	c-0.7,0-1-0.6-1-1.6v-7.9c0-1,0.4-1.6,1-1.6h1.4V123.1z"/>
<path class="st0" d="M31.5,28.9h-16v17.4h-4v14.4h4v43c0,14.4,7.5,22.5,20.8,22.5v-14.4c-3,0-4.8-2.6-4.8-7.4V60.7h5.6V46.3h-5.6
	V28.9z"/>
<path class="st0" d="M85.1,16.2c-5.4,0-9.6,4.3-9.6,9.8c0,5.3,4.2,9.6,9.6,9.6c5.4,0,9.6-4.3,9.6-9.6C94.7,20.5,90.5,16.2,85.1,16.2
	"/>
<path class="st0" d="M63.5,29.7c0-4.8,1.8-7.4,4.8-7.4V7.9c-13.3,0-20.8,8.2-20.8,22.5v15.8h-4.8v14.4h4.8V125
	c0,4.8-1.8,7.4-4.8,7.4v14.4c13.3,0,20.8-8.2,20.8-22.5V60.7l13.6,0v65.6h16v-80H63.5V29.7z"/>
</svg>
